<?xml version="1.0" standalone="no"?>
<!DOCTYPE svg PUBLIC "-//W3C//DTD SVG 20010904//EN"
 "http://www.w3.org/TR/2001/REC-SVG-20010904/DTD/svg10.dtd">
<svg version="1.0" xmlns="http://www.w3.org/2000/svg"
 width="128.000000pt" height="128.000000pt" viewBox="0 0 128.000000 128.000000"
 preserveAspectRatio="xMidYMid meet">
<metadata>
Created by potrace 1.14, written by Peter Selinger 2001-2017
</metadata>
<g transform="translate(0.000000,128.000000) scale(0.100000,-0.100000)"
fill="#000000" stroke="none">
<path d="M0 640 l0 -640 640 0 640 0 0 640 0 640 -640 0 -640 0 0 -640z m389
261 c16 -10 8 -43 -20 -83 -11 -14 -19 -42 -19 -62 0 -32 -3 -36 -25 -36 -22
0 -25 4 -25 36 0 20 -11 54 -25 79 -26 43 -26 43 -55 28 -29 -14 -30 -18 -30
-79 0 -61 -1 -64 -25 -64 -23 0 -24 3 -27 68 -3 60 -5 67 -24 70 -16 2 -20 8
-17 23 5 17 15 19 109 19 96 0 104 -1 104 -19 0 -32 15 -32 34 0 18 31 23 33
45 20z m149 3 c15 -4 22 -14 22 -31 0 -22 -3 -24 -27 -19 -46 10 -59 -8 -55
-71 2 -20 8 -23 42 -23 33 0 40 -3 40 -20 0 -17 -7 -20 -39 -20 -22 0 -47 3
-56 6 -20 8 -45 56 -45 86 0 34 35 86 62 91 13 2 25 5 28 6 3 0 15 -2 28 -5z
m199 -26 c30 -29 32 -94 2 -132 -26 -33 -84 -36 -123 -5 -22 17 -26 28 -26 72
0 46 3 54 28 69 38 25 91 23 119 -4z m186 11 c32 -17 37 -28 37 -81 0 -63 -24
-88 -84 -88 -36 0 -48 5 -65 26 -33 42 -26 124 12 142 30 14 74 14 100 1z
m164 -39 c37 -70 43 -70 43 -6 0 49 2 57 18 54 14 -3 17 -17 20 -91 l3 -88
-33 3 c-28 3 -37 11 -63 58 l-30 55 -3 -57 c-3 -50 -6 -58 -22 -58 -18 0 -20
7 -20 91 l0 90 32 -3 c26 -2 36 -11 55 -48z m-497 -375 c0 -86 -6 -105 -31
-105 -17 0 -19 8 -19 94 l0 93 25 -5 c24 -4 25 -7 25 -77z m-90 54 c0 -17 -5
-20 -26 -16 -30 5 -54 -15 -54 -48 0 -43 10 -55 46 -55 27 0 34 -4 34 -20 0
-17 -7 -20 -40 -20 -55 0 -90 34 -90 88 0 60 30 92 86 92 38 0 44 -3 44 -21z
m250 5 c0 -9 -9 -18 -20 -21 -17 -5 -20 -14 -20 -62 0 -63 -11 -87 -34 -78
-12 5 -16 21 -16 72 0 57 -2 65 -19 65 -10 0 -21 9 -24 20 -5 19 0 20 64 20
56 0 69 -3 69 -16z m72 -14 c7 -16 15 -30 18 -30 3 0 11 14 18 30 8 18 21 30
33 30 25 0 24 -7 -6 -72 -14 -29 -25 -65 -25 -80 0 -21 -5 -28 -20 -28 -16 0
-20 7 -20 33 0 17 -11 54 -25 81 -30 59 -31 66 -6 66 12 0 25 -12 33 -30z"/>
<path d="M644 846 c-3 -8 -4 -29 -2 -48 2 -28 7 -34 30 -36 22 -3 29 2 34 22
11 44 -3 76 -32 76 -13 0 -27 -6 -30 -14z"/>
<path d="M845 830 c-10 -47 2 -72 33 -68 23 3 27 8 30 42 3 40 -8 56 -40 56
-10 0 -19 -11 -23 -30z"/>
</g>
</svg>
